HIERARCHY
ROOT Hips
{
 OFFSET 0.000000 0.000000 0.000000
 CHANNELS 6 Xposition Yposition Zposition Yrotation Xrotation Zrotation
 JOINT Chest
 {
  OFFSET 0.000000 9.585900 0.002600
  CHANNELS 3 Yrotation Xrotation Zrotation
  JOINT Chest2
  {
   OFFSET 0.000000 9.601200 -0.005300
   CHANNELS 3 Yrotation Xrotation Zrotation
   JOINT Chest3
   {
    OFFSET 0.000000 9.561800 0.000000
    CHANNELS 3 Yrotation Xrotation Zrotation
    JOINT Chest4
    {
     OFFSET 0.000000 9.552100 0.000000
     CHANNELS 3 Yrotation Xrotation Zrotation
     JOINT Neck
     {
      OFFSET 0.000000 14.453000 0.000000
      CHANNELS 3 Yrotation Xrotation Zrotation
      JOINT Head
      {
       OFFSET 0.000000 8.936500 -0.011300
       CHANNELS 3 Yrotation Xrotation Zrotation
       End Site
       {
        OFFSET 0.000000 17.073600 -0.006000
       }
      }
     }
     JOINT RightCollar
     {
      OFFSET -2.921100 9.558500 0.000000
      CHANNELS 3 Yrotation Xrotation Zrotation
      JOINT RightShoulder
      {
       OFFSET -13.519700 0.000000 0.000000
       CHANNELS 3 Yrotation Xrotation Zrotation
       JOINT RightElbow
       {
        OFFSET 0.000000 -29.696600 0.000000
        CHANNELS 3 Yrotation Xrotation Zrotation
        JOINT RightWrist
        {
         OFFSET 0.000000 -24.004700 0.000000
         CHANNELS 3 Yrotation Xrotation Zrotation
         End Site
         {
          OFFSET 0.000000 -17.728500 0.000000
         }
        }
       }
      }
     }
     JOINT LeftCollar
     {
      OFFSET 2.921100 9.558500 0.000000
      CHANNELS 3 Yrotation Xrotation Zrotation
      JOINT LeftShoulder
      {
       OFFSET 13.519700 0.000000 0.000000
       CHANNELS 3 Yrotation Xrotation Zrotation
       JOINT LeftElbow
       {
        OFFSET 0.000000 -29.696600 0.000000
        CHANNELS 3 Yrotation Xrotation Zrotation
        JOINT LeftWrist
        {
         OFFSET 0.000000 -24.004700 0.000000
         CHANNELS 3 Yrotation Xrotation Zrotation
         End Site
         {
          OFFSET 0.000000 -17.728500 0.000000
         }
        }
       }
      }
     }
    }
   }
  }
 }
 JOINT RightHip
 {
  OFFSET -7.771700 -0.012900 -0.001300
  CHANNELS 3 Yrotation Xrotation Zrotation
  JOINT RightKnee
  {
   OFFSET 0.000000 -40.869800 0.001200
   CHANNELS 3 Yrotation Xrotation Zrotation
   JOINT RightAnkle
   {
    OFFSET 0.000000 -39.717900 0.002100
    CHANNELS 3 Yrotation Xrotation Zrotation
    JOINT RightToe
    {
     OFFSET 0.000000 -4.965400 11.033500
     CHANNELS 3 Yrotation Xrotation Zrotation
     End Site
     {
      OFFSET 0.000000 -1.423100 5.872300
     }
    }
   }
  }
 }
 JOINT LeftHip
 {
  OFFSET 7.771700 -0.012900 -0.001300
  CHANNELS 3 Yrotation Xrotation Zrotation
  JOINT LeftKnee
  {
   OFFSET 0.000000 -40.869800 0.001200
   CHANNELS 3 Yrotation Xrotation Zrotation
   JOINT LeftAnkle
   {
    OFFSET 0.000000 -39.717900 0.002100
    CHANNELS 3 Yrotation Xrotation Zrotation
    JOINT LeftToe
    {
     OFFSET 0.000000 -4.965400 11.033500
     CHANNELS 3 Yrotation Xrotation Zrotation
     End Site
     {
      OFFSET 0.000000 -1.423100 5.872300
     }
    }
   }
  }
 }
}
MOTION
Frames: 16
Frame Time: 0.008333
0.000000 85.388000 0.000000 0.000000 -5.767877 0.000000 0.000000 11.653817 0.000000 0.000000 -5.885947 0.000000 0.000000 -0.000000 0.000000 0.000000 -0.000000 0.000000 0.000000 12.528835 0.000000 0.000000 0.711642 0.000000 0.000000 -0.000000 0.000000 0.000000 0.000000 -90.000000 0.000000 -2.309062 0.000000 0.000000 2.309062 0.000000 0.000000 -0.000000 0.000000 0.000000 -0.000000 90.000000 0.000000 -2.309062 0.000000 0.000000 2.309062 0.000000 0.000000 8.520406 0.000000 0.000000 1.905762 0.000000 -0.000000 -4.658285 0.000000 0.000000 -0.000000 0.000000 0.000000 8.520406 0.000000 0.000000 1.905762 0.000000 -0.000000 -4.658285 0.000000 0.000000 -0.000000 0.000000
-11.263121 55.287808 18.338383 -178.003992 -17.936785 -1.513111 -0.113849 16.243938 0.471414 -0.014704 1.607789 0.078639 -0.023457 2.691451 0.131375 -0.053813 14.358396 0.700845 3.529525 21.705820 1.096573 3.542332 -2.510342 0.371496 2.649322 5.663401 1.560456 7.360633 -6.783133 -23.468492 -103.028663 -74.024118 134.617748 -6.849235 -9.044091 7.027147 -7.312022 2.196948 0.572757 2.140818 -21.009604 12.086852 54.205826 -59.592457 -93.088029 6.572441 -0.746099 -12.785210 -0.828558 -57.022233 11.308073 -97.251256 87.247500 -101.738650 -11.772874 -22.315767 14.958389 0.085342 -0.047723 0.014612 11.053268 -53.354417 -6.545806 110.102089 77.240052 107.266895 -8.192294 -23.680148 2.162914 0.086452 0.427113 0.072506
-11.259952 55.294846 18.344937 -178.033084 -17.926480 -1.515076 -0.114066 16.340190 0.508279 -0.016248 1.630857 0.081468 -0.025974 2.728435 0.136021 -0.064088 14.445522 0.719094 3.454633 21.564444 0.965952 3.489021 -2.678362 0.247532 2.641098 5.397123 1.475685 7.109150 -6.545458 -23.547486 -103.394315 -73.966585 135.183240 -6.958970 -9.318547 6.915724 -7.386625 1.932877 0.545664 2.031495 -20.955970 12.475474 54.812253 -59.798000 -93.704171 6.567663 -0.543829 -12.698763 -0.879002 -57.026417 11.355852 -96.970567 87.257421 -101.492015 -11.582172 -22.320460 14.921147 0.102523 -0.071027 0.006094 11.087491 -53.366457 -6.520452 110.093411 77.255729 107.252901 -8.205773 -23.651267 2.157749 0.085558 0.406039 0.091865
-11.257694 55.304660 18.350796 -178.041544 -17.918177 -1.518465 -0.117465 16.391028 0.526218 -0.023311 1.721893 0.094586 -0.027170 2.770928 0.139846 -0.067527 14.544930 0.732599 3.384526 21.424410 0.845991 3.438580 -2.844175 0.134095 2.553056 5.048610 1.394796 6.796356 -6.358115 -23.586942 -103.699433 -73.810127 135.772378 -7.064166 -9.594608 6.764229 -7.436720 1.620768 0.582969 1.930185 -20.872855 12.798693 55.538528 -59.974986 -94.479691 6.576991 -0.367595 -12.622290 -0.947333 -57.023782 11.414795 -96.577366 87.254726 -101.119903 -11.541289 -22.314072 14.913945 0.110393 -0.077249 -0.006913 11.106372 -53.373597 -6.504590 110.071998 77.269282 107.228489 -8.228026 -23.622693 2.165286 0.091552 0.384230 0.089483
-11.259705 55.314993 18.361635 -178.028805 -17.872694 -1.503192 -0.150625 16.503226 0.526948 -0.019050 1.717260 0.090231 -0.027680 2.815265 0.142809 -0.067844 14.647884 0.741636 3.319280 21.308575 0.740309 3.390538 -2.981255 0.035238 2.437567 4.668320 1.331601 6.437852 -6.207165 -23.600865 -103.916064 -73.563539 136.298989 -7.167541 -9.872817 6.572219 -7.464029 1.289939 0.669303 1.822000 -20.759674 13.055580 56.330819 -60.085171 -95.341394 6.579638 -0.190592 -12.526119 -1.092386 -57.046218 11.486500 -96.196570 87.274390 -100.810359 -11.487471 -22.321102 14.905432 0.076376 -0.088432 -0.016784 11.146288 -53.407428 -6.541535 109.927388 77.286411 107.069060 -8.247395 -23.576288 2.181133 0.092358 0.364104 0.076016
-11.257062 55.329320 18.364971 -178.037470 -17.864503 -1.512921 -0.148629 16.635296 0.554882 -0.018251 1.710036 0.087127 -0.028965 2.855373 0.145229 -0.072583 14.740292 0.748147 3.264486 21.238215 0.648545 3.351346 -3.064771 -0.050873 2.313026 4.296508 1.277903 6.072504 -6.059797 -23.569228 -104.077370 -73.272858 136.746933 -7.277539 -10.157277 6.343629 -7.463815 0.984711 0.785759 1.711693 -20.619941 13.244437 57.164355 -60.124825 -96.246191 6.569336 0.016561 -12.395544 -1.140347 -57.038245 11.520264 -95.803004 87.293604 -100.432717 -11.440912 -22.319979 14.907610 0.100496 -0.098073 -0.027220 11.152715 -53.410213 -6.518980 109.879205 77.304446 107.021563 -8.251793 -23.547363 2.181343 0.096239 0.340504 0.076335
-11.255457 55.344708 18.366377 -178.037698 -17.856233 -1.522195 -0.159339 16.707027 0.569387 -0.019868 1.729119 0.088313 -0.020701 2.833610 0.142461 -0.094189 14.862518 0.757560 3.224949 21.224497 0.572638 3.325839 -3.081767 -0.123396 2.198371 3.968230 1.233313 5.713521 -5.901670 -23.472128 -104.246428 -72.987820 137.147960 -7.391668 -10.439764 6.088174 -7.435305 0.737771 0.918832 1.627291 -20.461884 13.362429 57.985567 -60.106810 -97.149773 6.527506 0.246701 -12.233721 -1.191115 -57.028448 11.552224 -95.424987 87.317181 -100.061589 -11.493663 -22.311614 14.929794 0.134723 -0.110196 -0.023857 11.157866 -53.406139 -6.507947 109.805590 77.322540 106.950765 -8.247981 -23.534082 2.179692 0.093039 0.333193 0.080774
-11.252613 55.361007 18.363012 -178.039788 -17.863996 -1.542275 -0.164753 16.759880 0.590879 -0.027114 1.749603 0.088766 -0.028693 2.884603 0.146886 -0.109093 14.873489 0.755053 3.200240 21.265235 0.515091 3.312896 -3.035049 -0.179428 2.101227 3.690846 1.202341 5.366871 -5.719546 -23.302111 -104.504015 -72.740033 137.568447 -7.499641 -10.705942 5.811783 -7.380837 0.555476 1.058045 1.598768 -20.296299 13.410886 58.719748 -60.051466 -98.006633 6.449481 0.473420 -12.060677 -1.297667 -56.994560 11.636964 -95.054270 87.346479 -99.710210 -11.603849 -22.322074 14.964815 0.101658 -0.107344 -0.029599 11.139412 -53.389448 -6.473340 109.728963 77.336469 106.871317 -8.214264 -23.478505 2.188104 0.063593 0.279535 0.059341
-11.253394 55.374447 18.362930 -178.028432 -17.836740 -1.547048 -0.196869 16.770133 0.586011 -0.018053 1.738102 0.089726 -0.037439 2.911331 0.148612 -0.113530 14.868096 0.753104 3.164414 21.370318 0.482738 3.309321 -2.937781 -0.219072 1.994631 3.477905 1.191054 5.047580 -5.504037 -23.063160 -104.907397 -72.549672 138.051363 -7.601113 -10.949396 5.529577 -7.337621 0.447895 1.194410 1.641970 -20.128531 13.398344 59.324236 -59.979538 -98.786145 6.349537 0.683147 -11.896401 -1.378608 -56.999775 11.684255 -94.715892 87.368245 -99.386711 -11.761656 -22.312030 15.007635 0.095806 -0.111483 -0.029699 11.132495 -53.407091 -6.475199 109.655862 77.343821 106.795069 -8.218270 -23.456050 2.191078 0.062863 0.260424 0.053079
-11.258237 55.385890 18.360813 -178.024089 -17.808054 -1.528417 -0.234746 16.779155 0.555236 -0.003191 1.720448 0.091585 -0.039836 2.915154 0.148778 -0.125704 14.876856 0.752102 3.135449 21.476992 0.461860 3.313425 -2.805808 -0.244932 1.900456 3.273117 1.187619 4.770231 -5.259038 -22.767037 -105.454808 -72.426638 138.584514 -7.702334 -11.164479 5.267279 -7.295443 0.354850 1.313245 1.748805 -19.964232 13.343520 59.792019 -59.911581 -99.470572 6.253381 0.876394 -11.742000 -1.414753 -57.010690 11.713271 -94.347388 87.359494 -99.018410 -12.071404 -22.291767 15.087102 0.060096 -0.104597 -0.032140 11.134242 -53.418501 -6.505149 109.585316 77.339218 106.710169 -8.212000 -23.450642 2.189824 0.057250 0.250555 0.044485
-11.261928 55.395107 18.355852 -178.014856 -17.781719 -1.520848 -0.268888 16.779656 0.534149 -0.006271 1.721149 0.093838 -0.044597 2.913971 0.148637 -0.207312 14.866207 0.739650 3.189340 21.590873 0.439497 3.322934 -2.655839 -0.257379 1.900210 3.087764 1.184252 4.537145 -4.993266 -22.435588 -106.105718 -72.359139 139.130298 -7.804789 -11.335210 5.045390 -7.179303 0.297296 1.377716 1.890637 -19.824281 13.286400 60.125284 -59.863422 -100.043108 6.181374 1.050009 -11.592650 -1.464486 -57.020417 11.742494 -94.123217 87.369733 -98.774757 -12.348092 -22.279981 15.137346 0.034023 -0.102620 -0.034097 11.123527 -53.437501 -6.522808 109.556490 77.329507 106.671823 -8.209450 -23.436278 2.191340 0.048234 0.225109 0.032896
-11.258341 55.401047 18.350765 -178.015482 -17.740069 -1.555253 -0.276046 16.766607 0.558122 -0.014922 1.712706 0.097672 -0.049737 2.906254 0.148043 -0.226305 14.843421 0.725991 3.216981 21.662863 0.442533 3.314533 -2.452322 -0.245648 1.855261 2.934018 1.212008 4.335629 -4.718347 -22.091524 -106.794398 -72.324590 139.645704 -7.903857 -11.450097 4.869026 -7.128295 0.296057 1.402961 2.036720 -19.725128 13.256991 60.333248 -59.843356 -100.488999 6.137705 1.186527 -11.455074 -1.576431 -57.043241 11.802483 -94.122461 87.435378 -98.778734 -12.236881 -22.304055 15.092941 0.069335 -0.124880 -0.034840 11.060449 -53.484252 -6.468755 109.611983 77.317516 106.723088 -8.196400 -23.455437 2.182616 0.041719 0.223462 0.025886
-11.255727 55.403500 18.345736 -178.015088 -17.683241 -1.584875 -0.278206 16.732936 0.579495 -0.036971 1.737726 0.084418 -0.042608 2.869249 0.157857 -0.236983 14.823279 0.713353 3.214338 21.804644 0.455403 3.331753 -2.349114 -0.239102 1.813201 2.791238 1.262669 4.147421 -4.447974 -21.752912 -107.458417 -72.306707 140.099840 -7.992380 -11.510334 4.732665 -7.086037 0.267651 1.494635 2.188124 -19.613716 13.156442 60.434949 -59.850393 -100.804018 6.116263 1.260930 -11.334766 -1.674921 -57.084002 11.846195 -94.194455 87.489419 -98.879474 -11.980521 -22.337167 15.042112 0.103631 -0.151220 -0.039320 11.000773 -53.547113 -6.424285 109.672986 77.308497 106.774510 -8.179286 -23.473500 2.181883 0.035737 0.224573 0.013244
-11.254722 55.403804 18.337138 -178.021004 -17.634653 -1.603721 -0.270001 16.692224 0.598103 -0.040934 1.760147 0.075098 -0.051612 2.853079 0.156663 -0.233072 14.805798 0.714413 3.199727 21.922011 0.462380 3.339728 -2.268231 -0.224316 1.764811 2.661455 1.324082 3.962084 -4.196450 -21.435348 -108.056585 -72.296622 140.471032 -8.070313 -11.526148 4.639196 -7.070670 0.259090 1.568849 2.307688 -19.547993 13.074346 60.481444 -59.865098 -100.987143 6.105431 1.287366 -11.259736 -1.750952 -57.121362 11.889246 -94.338743 87.520840 -99.036109 -11.826069 -22.359243 15.007378 0.116038 -0.168547 -0.039873 10.962072 -53.600262 -6.393833 109.757233 77.301290 106.854784 -8.168406 -23.492696 2.169811 0.038202 0.223873 0.012784
-11.255386 55.401467 18.327568 -178.029155 -17.578556 -1.611492 -0.267784 16.672908 0.596475 -0.033597 1.758212 0.074687 -0.059177 2.851138 0.146882 -0.229961 14.771100 0.724180 3.198511 21.994382 0.470615 3.328512 -2.191056 -0.200687 1.747777 2.602323 1.363181 3.747214 -4.027617 -21.113785 -108.557030 -72.288322 140.747935 -8.136835 -11.510539 4.585660 -7.045589 0.275633 1.625819 2.361503 -19.526793 13.025726 60.508398 -59.874221 -101.106283 6.104516 1.283945 -11.193249 -1.798369 -57.171028 11.915617 -94.539768 87.540282 -99.234580 -11.741275 -22.379945 14.977369 0.147792 -0.170063 -0.028684 10.959246 -53.658292 -6.391602 109.836541 77.298165 106.937857 -8.175106 -23.507024 2.171602 0.048028 0.219674 0.010439
-11.259925 55.396485 18.318307 -178.027347 -17.507999 -1.597940 -0.272819 16.644391 0.571461 -0.032042 1.752758 0.080378 -0.060623 2.827447 0.145518 -0.210355 14.772392 0.700921 3.183916 22.030002 0.511646 3.306411 -2.142105 -0.177806 1.681077 2.479043 1.485702 3.546948 -3.820879 -20.865548 -108.944172 -72.279735 140.944915 -8.187204 -11.477109 4.560019 -7.030175 0.360962 1.707879 2.348900 -19.598388 12.996777 60.342084 -59.884981 -101.037254 6.127314 1.167508 -11.086433 -1.800817 -57.238907 11.882548 -94.878952 87.556267 -99.565231 -11.661311 -22.408705 14.953080 0.104547 -0.168338 -0.023633 10.943820 -53.729686 -6.416868 109.879216 77.280375 106.956404 -8.170643 -23.506204 2.196094 0.039029 0.211177 -0.015289
